<svg width="184" height="40" viewBox="0 0 184 40" fill="none" xmlns="http://www.w3.org/2000/svg">
<path id="Union" fill-rule="evenodd" clip-rule="evenodd" d="M87.1002 17.3556H68.0882V24.7667C69.1989 23.4134 70.5709 22.1889 72.1389 21.1578C73.1842 20.4489 74.2949 20.1267 75.3402 20.1267C77.4962 20.1267 79.3255 20.9645 80.7629 22.5756C82.1349 24.0578 82.7882 25.6689 82.7882 27.4089C82.7882 29.4067 81.8082 31.4689 79.8482 33.5311C77.8882 35.5934 75.8629 36.6245 73.8375 36.6245C72.7922 36.6245 71.6815 36.1734 70.5709 35.2711C70.2442 35.0134 69.3295 34.1756 67.9575 32.7578V36.8822L64.4295 35.4V17.3556H54.8255V20.0622C56.6549 20.7067 58.0269 21.6089 58.8109 22.7045C59.6602 23.8645 60.0522 25.3467 60.0522 27.28C60.0522 30.0511 58.9415 32.4356 56.6549 34.4334C56.2914 34.7918 55.7034 35.2057 54.8908 35.7776L54.6949 35.9156C53.6495 36.6889 52.9309 37.0756 52.6695 37.0756C52.4082 37.0756 51.1015 35.9156 48.7495 33.5311C50.1869 33.4667 51.6895 33.0156 53.2575 32.1778C54.7602 31.4045 56.0015 30.4378 57.0469 29.3422C58.1575 28.1178 58.7455 26.8289 58.7455 25.4756C58.7455 24.1222 57.9615 23.22 56.4589 22.64C55.7402 22.3822 55.0215 22.2534 54.3029 22.3178C49.8602 22.5111 47.1815 25.0245 46.2015 29.9222L42.0202 28.2467C42.0202 27.0867 42.4775 25.8622 43.3269 24.4445C43.4479 24.2534 43.551 24.0978 43.6328 23.9743L43.6334 23.9735L43.6334 23.9734C43.7721 23.7641 43.8495 23.6472 43.8495 23.6067C43.8495 22.9622 42.9349 22.64 41.1055 22.64C38.7535 22.64 36.9242 23.6711 35.6175 25.7334C35.0295 26.6356 34.7682 27.5378 34.7682 28.44C34.7682 30.3089 35.6175 32.1134 37.3815 33.7889L41.2362 37.5267C38.8842 36.7534 36.6629 35.5289 34.6375 34.0467C31.9589 31.7911 30.5869 29.6 30.5869 27.28C30.5869 24.3156 32.0895 22.1245 35.0949 20.6422C36.4015 19.9978 37.7735 19.6756 39.2109 19.6756C41.0402 19.6756 42.8042 20.1911 44.6335 21.2867C44.7765 21.3713 44.907 21.4498 45.025 21.5207L45.0255 21.521C45.4462 21.774 45.7075 21.9311 45.8095 21.9311C46.5623 21.6063 47.349 21.2814 48.194 20.9325C48.5223 20.7969 48.8595 20.6576 49.2069 20.5134C49.8602 20.2556 50.5135 20.0622 51.1669 19.9978V17.3556H27.7774V39.3956C27.32 39.1378 26.4707 38.7511 25.164 38.1711L21.832 36.6889V34.3689C19.5454 36.0445 17.52 37.0756 15.8867 37.5267C14.8414 37.7845 13.6654 37.9133 12.2934 37.9133C7.98138 37.9133 4.58404 35.98 2.10138 32.2422C0.99071 30.5667 0.40271 28.6333 0.40271 26.6356V10.8467H5.95604V28.5045C5.95604 29.7289 6.21738 31.0178 6.74004 32.3067C7.85071 35.0133 9.61471 36.3667 12.0974 36.3667C15.4294 36.3667 17.9774 35.0133 19.7414 32.2422C21.1134 30.1156 21.7667 28.1178 21.7667 26.2489L21.832 14.7133H27.7774L64.4294 14.7134C64.4173 11.5143 63.5027 8.44161 61.6855 5.36891C60.2482 2.92002 58.8762 1.18002 57.5695 0.0200195H62.0122C63.3842 1.11558 64.5602 2.5978 65.5402 4.27335C67.2389 7.17335 68.0882 10.6534 68.0882 14.7134H83.6375L127.542 14.7134V8.01113L131.2 10.5245V14.7134H143.156C143.145 10.81 142.099 7.48007 140.02 4.66002C138.779 2.98446 137.603 1.82446 136.558 1.11558L140.674 1.05113C142.96 2.27558 144.79 4.9178 146.096 9.04224C146.75 10.9756 147.076 12.9089 147.076 14.7134H163.54H183.598V17.3556H169.747V20.4489C169.812 20.4489 169.878 20.4489 169.878 20.5134C169.878 20.5233 169.881 20.5317 169.886 20.5388C170.129 20.4584 170.974 20.2974 172.39 20.0273L172.883 19.9334C173.602 19.8045 174.386 19.74 175.104 19.74C178.175 19.74 180.135 20.5778 180.984 22.2534C181.572 23.4134 181.834 25.6689 181.834 29.0845V36.8178C181.72 36.7618 181.446 36.6572 181.018 36.4935C180.46 36.2802 179.639 35.9664 178.567 35.5289C178.567 35.0778 178.502 34.82 178.306 34.6911C177.587 35.0778 176.999 35.4 176.542 35.6578C175.039 36.3667 173.34 36.6889 171.446 36.6889C168.767 36.6889 166.676 35.8511 165.239 34.1756C164.52 33.4022 164.194 32.5 164.194 31.4689C164.194 30.3734 164.782 29.2778 165.892 28.1178C168.048 25.9911 170.727 24.8956 173.928 24.8956C175.888 24.8956 177.456 25.3467 178.632 26.2489V24.4445C178.044 23.6711 177.456 23.22 176.868 22.9622C176.28 22.7045 175.562 22.5756 174.582 22.64C172.36 22.7045 170.4 23.0911 168.571 23.8C168.331 23.891 168.097 23.9819 167.866 24.0714L167.866 24.0715C167.279 24.299 166.716 24.5172 166.154 24.7022V23.22C166.264 23.1476 166.394 23.0346 166.546 22.9037C166.664 22.8016 166.794 22.6886 166.938 22.5756C166.962 22.551 166.978 22.5263 166.991 22.5053C167.012 22.4713 167.028 22.4467 167.068 22.4467V17.3556H147.142V23.2845C148.644 21.6734 150.016 20.6422 151.258 20.1911C151.976 19.9334 152.76 19.8045 153.675 19.8045C157.007 19.8045 159.49 21.4156 161.123 24.6378C161.842 26.0556 162.234 27.4089 162.234 28.8267C162.234 31.34 161.188 33.5956 159.098 35.5934C158.803 35.8571 158.542 36.0993 158.314 36.3111C157.984 36.6166 157.722 36.8589 157.53 37.0111L154.198 35.0134L154.325 34.8782C155.144 34.0082 156.079 33.0161 157.072 31.7911C158.314 30.3734 158.902 28.5689 158.902 26.3778C158.902 25.0889 158.64 23.9934 157.987 23.0911C157.268 22.06 156.288 21.5445 155.047 21.6089C153.871 21.6089 152.63 22.06 151.258 22.8978C150.082 23.6711 149.036 24.5734 148.252 25.6045C147.403 26.7645 146.946 27.7956 146.946 28.8911V36.8822L143.156 34.8845V17.3556H131.135V33.4667C131.135 33.9178 131.266 34.3689 131.592 34.82C131.919 35.2711 132.311 35.5289 132.768 35.5289C134.794 35.5289 135.839 33.4667 135.839 29.3422L139.955 31.6622C138.387 35.0778 135.97 36.8178 132.703 36.7534C130.808 36.7534 129.306 35.8511 128.26 34.1756C127.803 33.4667 127.542 32.6934 127.542 31.9845V17.3556H89.7789V20.4489C89.8442 20.4489 89.9095 20.4489 89.9095 20.5134C89.9174 20.5211 89.9252 20.5279 89.933 20.5339C90.1948 20.452 91.0336 20.2921 92.422 20.0274L92.9148 19.9334C93.6335 19.8045 94.4175 19.74 95.1362 19.74C98.2069 19.74 100.167 20.5778 101.016 22.2534C101.604 23.4134 101.866 25.6689 101.866 29.0845V36.8178C101.752 36.7618 101.478 36.6572 101.05 36.4935L101.05 36.4934L101.049 36.4933C100.491 36.28 99.6704 35.9663 98.5989 35.5289C98.5989 35.0778 98.5335 34.82 98.3375 34.6911C97.6189 35.0778 97.0309 35.4 96.5735 35.6578C95.1362 36.3667 93.3722 36.6889 91.4775 36.6889C88.7989 36.6889 86.7082 35.8511 85.2709 34.1756C84.5522 33.4022 84.2255 32.5 84.2255 31.4689C84.2255 30.3734 84.8135 29.2778 85.9242 28.1178C88.0802 25.9911 90.7589 24.8956 93.9602 24.8956C95.9202 24.8956 97.4882 25.3467 98.6642 26.2489V24.4445C98.0762 23.6711 97.4882 23.22 96.9002 22.9622C96.3122 22.7045 95.5935 22.5756 94.6135 22.64C92.3922 22.7045 90.4322 23.0911 88.6029 23.8C88.3632 23.891 88.1287 23.9819 87.8979 24.0714L87.8978 24.0714L87.8975 24.0716C87.3107 24.2991 86.7481 24.5173 86.1855 24.7022V23.22C86.2956 23.1476 86.4263 23.0346 86.5776 22.9038L86.5778 22.9036C86.6958 22.8015 86.8264 22.6885 86.9695 22.5756C86.9945 22.551 87.0099 22.5263 87.0231 22.5053C87.0444 22.4713 87.0598 22.4467 87.1002 22.4467V17.3556ZM78.3455 25.4111C79.7829 26.8934 80.5015 28.2467 80.5015 29.4711C80.5015 30.2445 80.3055 31.0822 79.9789 31.8556C79.1949 33.66 78.0842 34.5622 76.6469 34.5622C74.3602 34.5622 72.2042 33.0156 70.0482 29.9222C69.0682 28.44 68.5455 27.1511 68.5455 26.0556C68.5455 25.7978 68.7415 25.4111 69.1989 24.8956C70.3095 23.6067 71.5508 22.9622 72.8575 22.9622C74.9482 22.9622 76.7775 23.8 78.3455 25.4111ZM98.7295 29.9867C98.7295 29.4067 98.0109 28.8911 96.5735 28.3756C95.3975 27.9889 94.4175 27.7956 93.6335 27.7956C90.7589 27.7956 88.4722 28.8267 86.7082 30.8889C85.9895 31.7267 85.6629 32.3711 85.6629 32.8867C85.9242 33.8534 87.1002 34.3689 89.0602 34.3689C91.6082 34.3689 93.8949 33.7245 95.9855 32.5C97.8149 31.4045 98.7295 30.5667 98.7295 29.9867ZM120.616 27.1511C121.596 26.12 122.054 25.2178 122.054 24.4445C122.054 23.5422 121.727 22.7045 121.074 22.06C119.702 20.5778 118.003 19.8045 116.043 19.8045C115.063 19.8045 114.148 19.9334 113.234 20.2556C111.404 20.9 110.163 21.48 109.575 22.06V20.5134H105.655V35.4L109.575 37.3978V28.8267C109.575 26.3778 110.816 24.1222 113.234 22.1245C114.475 21.1578 115.586 20.6422 116.631 20.6422C117.088 20.6422 117.611 20.7711 118.134 21.0934C118.722 21.4156 119.048 21.8022 119.048 22.2534C119.048 23.1556 118.591 23.9289 117.611 24.5734C116.827 25.2178 115.912 25.54 114.998 25.6045L118.068 29.02C118.918 28.6334 119.767 27.9889 120.616 27.1511ZM178.632 29.9867C178.632 29.4067 177.914 28.8911 176.476 28.3756C175.3 27.9889 174.32 27.7956 173.536 27.7956C170.662 27.7956 168.375 28.8267 166.611 30.8889C165.892 31.7267 165.566 32.3711 165.566 32.8867C165.827 33.8534 167.003 34.3689 168.963 34.3689C171.511 34.3689 173.798 33.7245 175.888 32.5C177.718 31.4045 178.632 30.5667 178.632 29.9867Z" fill="#26AF9F"/>
</svg>
