<svg width="184" height="40" viewBox="0 0 184 40" fill="none" xmlns="http://www.w3.org/2000/svg">
<path id="Union" fill-rule="evenodd" clip-rule="evenodd" d="M87.1003 17.3556H68.0883V24.7667C69.199 23.4134 70.571 22.1889 72.139 21.1578C73.1843 20.4489 74.295 20.1267 75.3403 20.1267C77.4963 20.1267 79.3256 20.9645 80.763 22.5756C82.135 24.0578 82.7883 25.6689 82.7883 27.4089C82.7883 29.4067 81.8083 31.4689 79.8483 33.5311C77.8883 35.5934 75.863 36.6245 73.8376 36.6245C72.7923 36.6245 71.6816 36.1734 70.571 35.2711C70.2443 35.0134 69.3296 34.1756 67.9576 32.7578V36.8822L64.4296 35.4V17.3556H54.8256V20.0622C56.655 20.7067 58.027 21.6089 58.811 22.7045C59.6603 23.8645 60.0523 25.3467 60.0523 27.28C60.0523 30.0511 58.9416 32.4356 56.655 34.4334C56.2916 34.7918 55.7035 35.2057 54.8909 35.7776L54.695 35.9156C53.6496 36.6889 52.931 37.0756 52.6696 37.0756C52.4083 37.0756 51.1016 35.9156 48.7496 33.5311C50.187 33.4667 51.6896 33.0156 53.2576 32.1778C54.7603 31.4045 56.0016 30.4378 57.047 29.3422C58.1576 28.1178 58.7456 26.8289 58.7456 25.4756C58.7456 24.1222 57.9616 23.22 56.459 22.64C55.7403 22.3822 55.0216 22.2534 54.303 22.3178C49.8603 22.5111 47.1816 25.0245 46.2016 29.9222L42.0203 28.2467C42.0203 27.0867 42.4776 25.8622 43.327 24.4445C43.448 24.2534 43.5511 24.0978 43.6329 23.9743L43.6335 23.9735L43.6335 23.9734C43.7722 23.7641 43.8496 23.6472 43.8496 23.6067C43.8496 22.9622 42.935 22.64 41.1056 22.64C38.7536 22.64 36.9243 23.6711 35.6176 25.7334C35.0296 26.6356 34.7683 27.5378 34.7683 28.44C34.7683 30.3089 35.6176 32.1134 37.3816 33.7889L41.2363 37.5267C38.8843 36.7534 36.663 35.5289 34.6376 34.0467C31.959 31.7911 30.587 29.6 30.587 27.28C30.587 24.3156 32.0896 22.1245 35.095 20.6422C36.4016 19.9978 37.7736 19.6756 39.211 19.6756C41.0403 19.6756 42.8043 20.1911 44.6336 21.2867C44.7767 21.3713 44.9072 21.4498 45.0251 21.5207L45.0256 21.521C45.4463 21.774 45.7076 21.9311 45.8096 21.9311C46.5624 21.6063 47.3491 21.2814 48.1941 20.9325C48.5224 20.7969 48.8596 20.6576 49.207 20.5134C49.8603 20.2556 50.5136 20.0622 51.167 19.9978V17.3556H27.7775V39.3956C27.3202 39.1378 26.4708 38.7511 25.1642 38.1711L21.8322 36.6889V34.3689C19.5455 36.0445 17.5202 37.0756 15.8868 37.5267C14.8415 37.7845 13.6655 37.9133 12.2935 37.9133C7.9815 37.9133 4.58416 35.98 2.1015 32.2422C0.990832 30.5667 0.402832 28.6333 0.402832 26.6356V10.8467H5.95616V28.5045C5.95616 29.7289 6.2175 31.0178 6.74016 32.3067C7.85083 35.0133 9.61483 36.3667 12.0975 36.3667C15.4295 36.3667 17.9775 35.0133 19.7415 32.2422C21.1135 30.1156 21.7668 28.1178 21.7668 26.2489L21.8322 14.7133H27.7775L64.4295 14.7134C64.4174 11.5143 63.5028 8.44161 61.6856 5.36891C60.2483 2.92002 58.8763 1.18002 57.5696 0.0200195H62.0123C63.3843 1.11558 64.5603 2.5978 65.5403 4.27335C67.239 7.17335 68.0883 10.6534 68.0883 14.7134H83.6376L127.542 14.7134V8.01113L131.2 10.5245V14.7134H143.156C143.145 10.81 142.1 7.48007 140.02 4.66002C138.779 2.98446 137.603 1.82446 136.558 1.11558L140.674 1.05113C142.96 2.27558 144.79 4.9178 146.096 9.04224C146.75 10.9756 147.076 12.9089 147.076 14.7134H163.54H183.598V17.3556H169.747V20.4489C169.812 20.4489 169.878 20.4489 169.878 20.5134C169.878 20.5233 169.881 20.5317 169.886 20.5388C170.129 20.4584 170.974 20.2974 172.39 20.0273L172.883 19.9334C173.602 19.8045 174.386 19.74 175.104 19.74C178.175 19.74 180.135 20.5778 180.984 22.2534C181.572 23.4134 181.834 25.6689 181.834 29.0845V36.8178C181.72 36.7618 181.447 36.6572 181.018 36.4935C180.46 36.2802 179.639 35.9664 178.567 35.5289C178.567 35.0778 178.502 34.82 178.306 34.6911C177.587 35.0778 176.999 35.4 176.542 35.6578C175.039 36.3667 173.34 36.6889 171.446 36.6889C168.767 36.6889 166.676 35.8511 165.239 34.1756C164.52 33.4022 164.194 32.5 164.194 31.4689C164.194 30.3734 164.782 29.2778 165.892 28.1178C168.048 25.9911 170.727 24.8956 173.928 24.8956C175.888 24.8956 177.456 25.3467 178.632 26.2489V24.4445C178.044 23.6711 177.456 23.22 176.868 22.9622C176.28 22.7045 175.562 22.5756 174.582 22.64C172.36 22.7045 170.4 23.0911 168.571 23.8C168.331 23.891 168.097 23.9819 167.866 24.0714L167.866 24.0715C167.279 24.299 166.716 24.5172 166.154 24.7022V23.22C166.264 23.1476 166.394 23.0346 166.546 22.9037C166.664 22.8016 166.794 22.6886 166.938 22.5756C166.963 22.551 166.978 22.5263 166.991 22.5053C167.013 22.4713 167.028 22.4467 167.068 22.4467V17.3556H147.142V23.2845C148.644 21.6734 150.016 20.6422 151.258 20.1911C151.976 19.9334 152.76 19.8045 153.675 19.8045C157.007 19.8045 159.49 21.4156 161.123 24.6378C161.842 26.0556 162.234 27.4089 162.234 28.8267C162.234 31.34 161.188 33.5956 159.098 35.5934C158.803 35.8571 158.542 36.0993 158.314 36.3111C157.984 36.6166 157.723 36.8589 157.53 37.0111L154.198 35.0134L154.325 34.8782C155.144 34.0082 156.079 33.0161 157.072 31.7911C158.314 30.3734 158.902 28.5689 158.902 26.3778C158.902 25.0889 158.64 23.9934 157.987 23.0911C157.268 22.06 156.288 21.5445 155.047 21.6089C153.871 21.6089 152.63 22.06 151.258 22.8978C150.082 23.6711 149.036 24.5734 148.252 25.6045C147.403 26.7645 146.946 27.7956 146.946 28.8911V36.8822L143.156 34.8845V17.3556H131.135V33.4667C131.135 33.9178 131.266 34.3689 131.592 34.82C131.919 35.2711 132.311 35.5289 132.768 35.5289C134.794 35.5289 135.839 33.4667 135.839 29.3422L139.955 31.6622C138.387 35.0778 135.97 36.8178 132.703 36.7534C130.808 36.7534 129.306 35.8511 128.26 34.1756C127.803 33.4667 127.542 32.6934 127.542 31.9845V17.3556H89.779V20.4489C89.8443 20.4489 89.9096 20.4489 89.9096 20.5134C89.9175 20.5211 89.9254 20.5279 89.9331 20.5339C90.1949 20.452 91.0337 20.2921 92.4222 20.0274L92.915 19.9334C93.6336 19.8045 94.4176 19.74 95.1363 19.74C98.207 19.74 100.167 20.5778 101.016 22.2534C101.604 23.4134 101.866 25.6689 101.866 29.0845V36.8178C101.752 36.7618 101.479 36.6572 101.05 36.4935L101.05 36.4934L101.05 36.4933C100.491 36.28 99.6705 35.9663 98.599 35.5289C98.599 35.0778 98.5336 34.82 98.3376 34.6911C97.619 35.0778 97.031 35.4 96.5736 35.6578C95.1363 36.3667 93.3723 36.6889 91.4776 36.6889C88.799 36.6889 86.7083 35.8511 85.271 34.1756C84.5523 33.4022 84.2256 32.5 84.2256 31.4689C84.2256 30.3734 84.8136 29.2778 85.9243 28.1178C88.0803 25.9911 90.759 24.8956 93.9603 24.8956C95.9203 24.8956 97.4883 25.3467 98.6643 26.2489V24.4445C98.0763 23.6711 97.4883 23.22 96.9003 22.9622C96.3123 22.7045 95.5936 22.5756 94.6136 22.64C92.3923 22.7045 90.4323 23.0911 88.603 23.8C88.3633 23.891 88.1288 23.9819 87.898 24.0714L87.898 24.0714L87.8976 24.0716C87.3109 24.2991 86.7483 24.5173 86.1856 24.7022V23.22C86.2957 23.1476 86.4264 23.0346 86.5777 22.9038L86.5779 22.9036C86.6959 22.8015 86.8265 22.6885 86.9696 22.5756C86.9946 22.551 87.01 22.5263 87.0232 22.5053C87.0445 22.4713 87.0599 22.4467 87.1003 22.4467V17.3556ZM78.3456 25.4111C79.783 26.8934 80.5016 28.2467 80.5016 29.4711C80.5016 30.2445 80.3056 31.0822 79.979 31.8556C79.195 33.66 78.0843 34.5622 76.647 34.5622C74.3603 34.5622 72.2043 33.0156 70.0483 29.9222C69.0683 28.44 68.5456 27.1511 68.5456 26.0556C68.5456 25.7978 68.7416 25.4111 69.199 24.8956C70.3096 23.6067 71.551 22.9622 72.8576 22.9622C74.9483 22.9622 76.7776 23.8 78.3456 25.4111ZM98.7296 29.9867C98.7296 29.4067 98.011 28.8911 96.5736 28.3756C95.3976 27.9889 94.4176 27.7956 93.6336 27.7956C90.759 27.7956 88.4723 28.8267 86.7083 30.8889C85.9896 31.7267 85.663 32.3711 85.663 32.8867C85.9243 33.8534 87.1003 34.3689 89.0603 34.3689C91.6083 34.3689 93.895 33.7245 95.9856 32.5C97.815 31.4045 98.7296 30.5667 98.7296 29.9867ZM120.616 27.1511C121.596 26.12 122.054 25.2178 122.054 24.4445C122.054 23.5422 121.727 22.7045 121.074 22.06C119.702 20.5778 118.003 19.8045 116.043 19.8045C115.063 19.8045 114.148 19.9334 113.234 20.2556C111.404 20.9 110.163 21.48 109.575 22.06V20.5134H105.655V35.4L109.575 37.3978V28.8267C109.575 26.3778 110.816 24.1222 113.234 22.1245C114.475 21.1578 115.586 20.6422 116.631 20.6422C117.088 20.6422 117.611 20.7711 118.134 21.0934C118.722 21.4156 119.048 21.8022 119.048 22.2534C119.048 23.1556 118.591 23.9289 117.611 24.5734C116.827 25.2178 115.912 25.54 114.998 25.6045L118.068 29.02C118.918 28.6334 119.767 27.9889 120.616 27.1511ZM178.632 29.9867C178.632 29.4067 177.914 28.8911 176.476 28.3756C175.3 27.9889 174.32 27.7956 173.536 27.7956C170.662 27.7956 168.375 28.8267 166.611 30.8889C165.892 31.7267 165.566 32.3711 165.566 32.8867C165.827 33.8534 167.003 34.3689 168.963 34.3689C171.511 34.3689 173.798 33.7245 175.888 32.5C177.718 31.4045 178.632 30.5667 178.632 29.9867Z" fill="white"/>
</svg>
